# xmcd
#
# Track frame offsets: 
#        192
#        19607
#        39715
#        81145
#        101177
#        117255
#        136447
#        154777
#        180082
#
# Disc length: 2648 seconds
#
# Revision: 3
# Processed by: cddbd v1.5.1PL0 Copyright (c) Steve Scherf et al.
# Submitted via: ExactAudioCopy v0.95a5
#
DISCID=6a0a5609
DTITLE=John Denver - Different Directions
DYEAR=1991
DGENRE=Country
TTITLE0=Potter's Wheel
TTITLE1=Ponies
TTITLE2=The Foxfire Suite
TTITLE3=Chained To The Wheel
TTITLE4=Two Different Directions
TTITLE5=Hold On To Me
TTITLE6=The Chosen Ones
TTITLE7=Amazon (Let This Be A Voice)
TTITLE8=Tenderly Calling
EXTD=
EXTT0=
EXTT1=
EXTT2=
EXTT3=
EXTT4=
EXTT5=
EXTT6=
EXTT7=
EXTT8=
PLAYORDER=
